<?xml version="1.0" standalone="no"?>
<!DOCTYPE svg PUBLIC "-//W3C//DTD SVG 20010904//EN"
 "http://www.w3.org/TR/2001/REC-SVG-20010904/DTD/svg10.dtd">
<svg version="1.0" xmlns="http://www.w3.org/2000/svg"
 width="260.000000pt" height="260.000000pt" viewBox="0 0 260.000000 260.000000"
 preserveAspectRatio="xMidYMid meet">
<metadata>
Created by potrace 1.14, written by Peter Selinger 2001-2017
</metadata>
<g transform="translate(0.000000,260.000000) scale(0.100000,-0.100000)"
fill="#000000" stroke="none">
<path d="M679 2123 c-19 -44 -28 -53 -48 -54 -34 -1 -73 -8 -80 -15 -3 -2 12
-19 33 -37 38 -33 38 -33 31 -91 l-7 -57 49 27 50 26 47 -27 c50 -29 52 -27
37 39 -9 36 -7 41 31 82 30 32 36 44 24 45 -9 1 -20 3 -26 4 -5 1 -23 3 -38 4
-23 1 -32 10 -54 54 l-26 52 -23 -52z"/>
<path d="M1869 2123 c-19 -44 -28 -53 -48 -54 -33 -1 -73 -8 -79 -14 -3 -3 13
-21 36 -40 37 -33 40 -38 31 -68 -5 -17 -9 -42 -9 -55 l0 -23 48 27 48 27 47
-27 47 -28 0 24 c0 13 -4 37 -9 54 -8 29 -6 35 31 70 36 34 38 39 22 45 -11 4
-35 8 -54 8 -33 1 -38 5 -62 54 l-26 52 -23 -52z"/>
<path d="M997 2126 c-10 -8 -20 -29 -24 -49 -10 -66 64 -101 112 -52 31 30 32
65 2 93 -26 25 -63 28 -90 8z"/>
<path d="M1530 2133 c-23 -9 -39 -35 -40 -63 0 -30 8 -44 37 -59 54 -28 109 8
99 68 -8 50 -48 72 -96 54z"/>
<path d="M1284 2122 c-6 -4 -101 -212 -211 -462 -154 -348 -205 -456 -220
-458 -13 -2 -84 64 -238 224 -411 423 -366 382 -393 365 -16 -10 -16 -11 28
-221 18 -85 34 -166 36 -180 3 -14 7 -32 9 -40 2 -8 7 -28 10 -45 2 -16 7 -39
9 -50 2 -11 38 -191 80 -400 42 -209 81 -390 86 -403 l10 -22 809 0 c827 0
822 0 827 35 1 6 7 37 14 70 7 33 14 69 16 80 1 11 21 110 44 220 23 110 43
207 45 215 2 8 36 176 76 373 60 300 70 360 58 368 -26 17 -6 35 -373 -344
-132 -137 -247 -247 -256 -247 -17 0 -23 10 -63 100 -88 197 -116 261 -133
299 -128 295 -235 526 -246 528 -7 2 -18 0 -24 -5z"/>
<path d="M427 1995 c-20 -7 -37 -11 -37 -8 0 2 -10 -3 -22 -11 -17 -12 -22
-26 -23 -73 -1 -32 0 -61 2 -64 1 -4 31 4 65 16 l63 23 0 57 c0 31 -2 61 -5
65 -3 4 -22 2 -43 -5z"/>
<path d="M2127 2001 c-2 -3 -3 -32 -3 -65 l1 -58 45 -19 c25 -10 54 -18 65
-18 19 -1 21 4 18 60 -1 34 -5 64 -8 67 -10 11 -115 40 -118 33z"/>
<path d="M947 1893 c-47 -21 -59 -31 -64 -54 -3 -16 -5 -32 -5 -35 1 -10 133
-65 142 -59 5 3 18 35 30 71 19 56 20 68 9 79 -26 24 -54 24 -112 -2z"/>
<path d="M1558 1907 c-34 -13 -34 -21 -6 -103 26 -72 20 -71 121 -26 44 19 56
29 51 41 -3 9 -8 23 -11 32 -4 12 -112 72 -124 68 -2 -1 -16 -6 -31 -12z"/>
<path d="M1990 1802 c-27 -22 -31 -50 -14 -84 27 -53 86 -74 118 -42 35 35 4
112 -54 132 -23 9 -33 7 -50 -6z"/>
<path d="M520 1780 c-68 -73 -9 -156 70 -100 61 43 56 122 -8 128 -26 3 -39
-3 -62 -28z"/>
<path d="M727 1744 c-30 -16 -47 -49 -47 -91 0 -52 89 -183 125 -183 17 0 29
17 48 70 37 105 23 180 -38 206 -42 17 -53 17 -88 -2z"/>
<path d="M1794 1753 c-12 -2 -32 -15 -45 -29 -28 -30 -30 -105 -5 -182 22 -66
38 -79 72 -62 31 17 92 113 100 159 8 42 -17 93 -52 110 -25 11 -32 12 -70 4z"/>
</g>
</svg>
