<svg width="50" height="39" viewBox="0 0 50 39" fill="none" xmlns="http://www.w3.org/2000/svg">
<path d="M5.01688 11.6926C4.32176 10.9745 3.11935 11.6078 3.31838 12.5873L8.23041 36.7592C8.32511 37.2251 8.73486 37.56 9.21038 37.56H39.885C40.3605 37.56 40.7703 37.2251 40.865 36.7592L45.777 12.5873C45.976 11.6078 44.7736 10.9745 44.0785 11.6926L34.3075 21.7872C33.8141 22.297 32.9613 22.145 32.6744 21.4961L25.4623 5.1835C25.1112 4.38932 23.9843 4.38931 23.6331 5.18349L16.421 21.4961C16.1341 22.145 15.2813 22.297 14.7878 21.7872L5.01688 11.6926Z" fill="black"/>
<path d="M22.3927 21.9365C22.211 21.5361 22.3678 21.0745 22.6959 20.7819C22.7166 20.7634 22.7369 20.7448 22.7568 20.7262C22.9495 20.5488 23.1076 20.3522 23.231 20.1363C23.3544 19.9243 23.445 19.6871 23.5028 19.425C23.5606 19.159 23.5895 18.8582 23.5895 18.5228V11.615C23.5895 11.1087 23.9999 10.6984 24.5061 10.6984V10.6984C25.0124 10.6984 25.4228 11.1087 25.4228 11.615V18.1932C25.4228 18.5942 25.4054 18.9604 25.3707 19.292C25.336 19.6197 25.2782 19.9204 25.1972 20.1941C25.1201 20.4717 25.0141 20.7262 24.8792 20.9575C24.7481 21.1888 24.5842 21.4086 24.3876 21.6168C24.1948 21.8249 23.9654 22.0254 23.6994 22.2182C23.6639 22.2443 23.6276 22.2705 23.5905 22.2967C23.1733 22.5914 22.6038 22.4016 22.3927 21.9365V21.9365Z" fill="white"/>
<path d="M17.8037 25.9908C17.5381 25.3893 17.9786 24.7134 18.6361 24.7134V24.7134C19.0024 24.7134 19.333 24.9331 19.4749 25.2708L21.6927 30.5485L21.708 30.5865C21.8933 31.048 22.5551 31.0228 22.7047 30.5485V30.5485L23.4386 28.8173C23.546 28.5639 23.5443 28.2775 23.4338 28.0255L22.5031 25.9025C22.2574 25.3419 22.6681 24.7134 23.2802 24.7134H23.4881C23.7162 24.7134 23.9204 24.8546 24.0008 25.0681L24.0079 25.0869C24.186 25.5592 24.8569 25.5515 25.0241 25.0751V25.0751C25.1001 24.8584 25.3047 24.7134 25.5343 24.7134H25.7478C26.3553 24.7134 26.7628 25.337 26.519 25.8934L25.5841 28.0259C25.4737 28.2777 25.4718 28.5638 25.5789 28.8169L26.3307 30.5947L26.3386 30.6142C26.5221 31.0654 27.1703 31.0371 27.3138 30.5716V30.5716L29.5431 25.2706C29.685 24.933 30.0156 24.7134 30.3819 24.7134V24.7134C31.0394 24.7134 31.4799 25.3893 31.2144 25.9909L28.0512 33.1561C27.8912 33.5185 27.5325 33.7523 27.1364 33.7523H26.6197C26.2257 33.7523 25.8684 33.5209 25.7072 33.1614L25.1683 31.9595V31.9595C24.9417 31.356 24.0879 31.356 23.8613 31.9595V31.9595L23.3125 33.1663C23.1501 33.5232 22.7942 33.7523 22.4022 33.7523H21.8817C21.4856 33.7523 21.1268 33.5185 20.9669 33.1561L17.8037 25.9908Z" fill="white"/>
<path d="M34.2534 16.9976C35.0934 17.1331 36.596 14.6184 36.7662 13.5641C36.9363 12.5099 36.2196 11.5173 35.1653 11.3471C34.111 11.177 33.1184 11.8937 32.9483 12.948C32.7781 14.0023 33.4135 16.862 34.2534 16.9976Z" fill="#818181"/>
<path d="M35.5264 4.69829C35.8217 4.04046 36.7556 4.04046 37.0509 4.69829V4.69829C37.1723 4.96897 37.4283 5.15492 37.7233 5.18682V5.18682C38.4401 5.26433 38.7287 6.15258 38.1943 6.63665V6.63665C37.9744 6.83584 37.8767 7.13671 37.9375 7.42712V7.42712C38.0853 8.13285 37.3297 8.68182 36.7042 8.32316V8.32316C36.4468 8.17558 36.1305 8.17558 35.8731 8.32316V8.32316C35.2475 8.68182 34.492 8.13285 34.6398 7.42711V7.42711C34.7006 7.13671 34.6028 6.83584 34.3829 6.63665V6.63665C33.8485 6.15258 34.1371 5.26433 34.854 5.18682V5.18682C35.149 5.15492 35.4049 4.96897 35.5264 4.69829V4.69829Z" fill="#6C6C6C"/>
<path d="M40.8081 7.69106C40.8222 7.02385 41.4735 6.55746 42.1098 6.75893L42.6547 6.93151C43.0683 7.06247 43.3502 7.44511 43.3528 7.87888L43.3564 8.47228C43.3605 9.16245 42.6808 9.6492 42.0287 9.42303L41.468 9.22857C41.0582 9.08642 40.7868 8.69626 40.796 8.26257L40.8081 7.69106Z" fill="#B0B0B0"/>
<path d="M29.9421 8.29837C30.1897 8.20483 30.4642 8.21325 30.7056 8.32178L32.1822 8.9857C32.4452 9.10396 32.6444 9.32998 32.7286 9.60578L32.7367 9.63249C32.8872 10.1255 32.6383 10.6522 32.1618 10.8488L30.9813 11.3361C30.452 11.5545 29.8476 11.2847 29.6569 10.7448L29.2539 9.60426C29.0727 9.09146 29.3346 8.52789 29.8434 8.33567L29.9421 8.29837Z" fill="#959595"/>
<circle cx="29.6757" cy="5.17131" r="1.38176" fill="#C9C9C9"/>
<ellipse cx="39.1012" cy="11.7567" rx="1.24788" ry="1.67786" transform="rotate(-39.4177 39.1012 11.7567)" fill="#4E4E4E"/>
<path d="M14.8113 16.9976C13.9713 17.1331 12.4687 14.6184 12.2985 13.5641C12.1284 12.5099 12.8451 11.5173 13.8994 11.3471C14.9537 11.177 15.9463 11.8937 16.1164 12.948C16.2866 14.0023 15.6512 16.862 14.8113 16.9976Z" fill="#818181"/>
<path d="M13.5383 4.69829C13.243 4.04046 12.3091 4.04046 12.0138 4.69829V4.69829C11.8923 4.96897 11.6364 5.15492 11.3414 5.18682V5.18682C10.6246 5.26433 10.336 6.15258 10.8704 6.63665V6.63665C11.0902 6.83584 11.188 7.13671 11.1272 7.42712V7.42712C10.9794 8.13285 11.735 8.68182 12.3605 8.32316V8.32316C12.6179 8.17558 12.9342 8.17558 13.1916 8.32316V8.32316C13.8172 8.68182 14.5727 8.13285 14.4249 7.42711V7.42711C14.3641 7.13671 14.4619 6.83584 14.6818 6.63665V6.63665C15.2162 6.15258 14.9276 5.26433 14.2107 5.18682V5.18682C13.9157 5.15492 13.6598 4.96897 13.5383 4.69829V4.69829Z" fill="#6C6C6C"/>
<path d="M8.25661 7.69106C8.24245 7.02385 7.59117 6.55746 6.95494 6.75893L6.40997 6.93151C5.99643 7.06247 5.71447 7.44511 5.71188 7.87888L5.70834 8.47228C5.70422 9.16245 6.38395 9.6492 7.03602 9.42303L7.59666 9.22857C8.00649 9.08642 8.27794 8.69626 8.26874 8.26257L8.25661 7.69106Z" fill="#B0B0B0"/>
<path d="M19.1223 8.29837C18.8748 8.20483 18.6002 8.21325 18.3588 8.32178L16.8822 8.9857C16.6192 9.10396 16.4201 9.32998 16.3359 9.60578L16.3277 9.63249C16.1772 10.1255 16.4262 10.6522 16.9027 10.8488L18.0832 11.3361C18.6125 11.5545 19.2168 11.2847 19.4076 10.7448L19.8105 9.60426C19.9917 9.09146 19.7298 8.52789 19.2211 8.33567L19.1223 8.29837Z" fill="#959595"/>
<circle cx="1.38176" cy="1.38176" r="1.38176" transform="matrix(-1 0 0 1 20.7705 3.78955)" fill="#C9C9C9"/>
<ellipse cx="1.24788" cy="1.67785" rx="1.24788" ry="1.67785" transform="matrix(-0.772538 -0.634969 -0.634969 0.772538 11.9929 11.2528)" fill="#4E4E4E"/>
</svg>
